<svg width="44.000000" height="44.000000" viewBox="0 0 44 44" fill="none" xmlns="http://www.w3.org/2000/svg" xmlns:xlink="http://www.w3.org/1999/xlink">
	<desc>
			Created with Pixso.
	</desc>
	<defs>
		<clipPath id="clip237_2086">
			<rect id="icon_commone_手机绑定面" width="22.000000" height="22.000000" transform="translate(11.000000 11.000000)" fill="white" fill-opacity="0"/>
		</clipPath>
	</defs>
	<g opacity="0.100000">
		<circle id="椭圆 227" cx="22.000000" cy="22.000000" r="22.000000" fill="#256EF3" fill-opacity="1.000000"/>
	</g>
	<g clip-path="url(#clip237_2086)">
		<path id="path" d="M27.04 11.91C27.13 11.91 27.22 11.92 27.31 11.92C27.4 11.93 27.48 11.95 27.57 11.96C27.66 11.98 27.75 12 27.84 12.03C27.92 12.06 28.01 12.09 28.09 12.12C28.17 12.16 28.25 12.19 28.33 12.24C28.41 12.28 28.49 12.33 28.56 12.38C28.64 12.43 28.71 12.48 28.78 12.54C28.85 12.59 28.92 12.65 28.98 12.72C29.04 12.78 29.11 12.85 29.16 12.92C29.22 12.99 29.27 13.06 29.32 13.13C29.37 13.21 29.42 13.29 29.46 13.37C29.5 13.44 29.54 13.53 29.58 13.61C29.61 13.69 29.64 13.78 29.67 13.86C29.69 13.95 29.72 14.04 29.73 14.13C29.75 14.21 29.76 14.3 29.77 14.39C29.78 14.48 29.79 14.57 29.79 14.66L29.79 29.33C29.79 29.42 29.78 29.51 29.77 29.6C29.76 29.69 29.75 29.78 29.73 29.86C29.72 29.95 29.69 30.04 29.67 30.13C29.64 30.21 29.61 30.3 29.58 30.38C29.54 30.46 29.5 30.55 29.46 30.62C29.42 30.7 29.37 30.78 29.32 30.86C29.27 30.93 29.22 31 29.16 31.07C29.11 31.14 29.04 31.21 28.98 31.27C28.92 31.34 28.85 31.4 28.78 31.45C28.71 31.51 28.64 31.56 28.56 31.61C28.49 31.66 28.41 31.71 28.33 31.75C28.25 31.8 28.17 31.83 28.09 31.87C28.01 31.9 27.92 31.93 27.83 31.96C27.75 31.99 27.66 32.01 27.57 32.03C27.48 32.04 27.4 32.06 27.31 32.07C27.22 32.07 27.13 32.08 27.04 32.08L16.95 32.08C16.86 32.08 16.77 32.07 16.68 32.07C16.59 32.06 16.51 32.04 16.42 32.03C16.33 32.01 16.24 31.99 16.16 31.96C16.07 31.93 15.98 31.9 15.9 31.87C15.82 31.83 15.74 31.8 15.66 31.75C15.58 31.71 15.5 31.66 15.43 31.61C15.35 31.56 15.28 31.51 15.21 31.45C15.14 31.4 15.07 31.34 15.01 31.27C14.95 31.21 14.88 31.14 14.83 31.07C14.77 31 14.72 30.93 14.67 30.86C14.62 30.78 14.57 30.7 14.53 30.62C14.49 30.55 14.45 30.46 14.41 30.38C14.38 30.3 14.35 30.21 14.32 30.13C14.3 30.04 14.27 29.95 14.26 29.86C14.24 29.78 14.23 29.69 14.22 29.6C14.21 29.51 14.2 29.42 14.2 29.33L14.2 14.66C14.2 14.57 14.21 14.48 14.22 14.39C14.23 14.3 14.24 14.21 14.26 14.13C14.27 14.04 14.3 13.95 14.32 13.86C14.35 13.78 14.38 13.69 14.41 13.61C14.45 13.53 14.49 13.44 14.53 13.37C14.57 13.29 14.62 13.21 14.67 13.13C14.72 13.06 14.77 12.99 14.83 12.92C14.88 12.85 14.95 12.78 15.01 12.72C15.07 12.65 15.14 12.59 15.21 12.54C15.28 12.48 15.35 12.43 15.43 12.38C15.5 12.33 15.58 12.28 15.66 12.24C15.74 12.19 15.82 12.16 15.9 12.12C15.98 12.09 16.07 12.06 16.16 12.03C16.24 12 16.33 11.98 16.42 11.96C16.51 11.95 16.59 11.93 16.68 11.92C16.77 11.92 16.86 11.91 16.95 11.91L27.04 11.91ZM22.45 27.95L21.54 27.95C21.48 27.95 21.42 27.96 21.36 27.97C21.3 27.98 21.25 28 21.19 28.02C21.14 28.04 21.09 28.07 21.04 28.1C20.99 28.13 20.94 28.17 20.9 28.21C20.86 28.25 20.82 28.29 20.78 28.34C20.75 28.39 20.72 28.44 20.7 28.49C20.67 28.55 20.65 28.6 20.64 28.66C20.63 28.72 20.62 28.78 20.62 28.84C20.61 28.89 20.62 28.95 20.63 29.01C20.64 29.07 20.65 29.13 20.67 29.18C20.69 29.24 20.72 29.29 20.75 29.34C20.78 29.39 20.81 29.44 20.85 29.48C20.89 29.53 20.93 29.57 20.98 29.6C21.03 29.64 21.08 29.67 21.13 29.69C21.18 29.72 21.24 29.74 21.29 29.76C21.35 29.77 21.41 29.78 21.47 29.78L21.54 29.79L22.45 29.79C22.51 29.79 22.57 29.78 22.63 29.77C22.69 29.76 22.75 29.74 22.8 29.72C22.86 29.69 22.91 29.67 22.96 29.63C23.01 29.6 23.06 29.56 23.1 29.52C23.14 29.48 23.18 29.43 23.22 29.38C23.25 29.33 23.28 29.28 23.3 29.22C23.32 29.17 23.34 29.11 23.35 29.05C23.36 28.99 23.37 28.93 23.37 28.87C23.37 28.81 23.36 28.75 23.35 28.69C23.34 28.63 23.32 28.57 23.3 28.52C23.28 28.46 23.25 28.41 23.22 28.36C23.18 28.31 23.14 28.26 23.1 28.22C23.06 28.18 23.01 28.14 22.96 28.11C22.91 28.07 22.86 28.05 22.8 28.02C22.75 28 22.69 27.98 22.63 27.97C22.57 27.96 22.51 27.95 22.45 27.95ZM27.04 13.75L16.95 13.75C16.89 13.75 16.83 13.75 16.77 13.76C16.72 13.77 16.66 13.79 16.6 13.81C16.55 13.84 16.49 13.87 16.44 13.9C16.39 13.93 16.35 13.97 16.31 14.01C16.26 14.06 16.22 14.1 16.19 14.15C16.16 14.2 16.13 14.26 16.11 14.31C16.08 14.37 16.07 14.42 16.05 14.48C16.04 14.54 16.04 14.6 16.04 14.66L16.04 25.2L27.95 25.2L27.95 14.66C27.95 14.6 27.95 14.55 27.94 14.49C27.93 14.43 27.91 14.38 27.89 14.33C27.87 14.27 27.84 14.22 27.81 14.17C27.78 14.13 27.75 14.08 27.71 14.04C27.67 14 27.63 13.96 27.58 13.92C27.54 13.89 27.49 13.86 27.43 13.84C27.38 13.81 27.33 13.79 27.27 13.78C27.22 13.76 27.16 13.75 27.11 13.75L27.04 13.75Z" fill="#256EF3" fill-opacity="1.000000" fill-rule="nonzero"/>
	</g>
</svg>
