<svg width="44.000000" height="44.000000" viewBox="0 0 44 44" fill="none" xmlns="http://www.w3.org/2000/svg" xmlns:xlink="http://www.w3.org/1999/xlink">
	<desc>
			Created with Pixso.
	</desc>
	<defs/>
	<g opacity="0.100000">
		<circle id="椭圆 228" cx="22.000000" cy="22.000000" r="22.000000" fill="#24DB5A" fill-opacity="1.000000"/>
	</g>
	<path id="path" d="M27.74 18.12C25.17 18.15 22.92 18.86 21.17 20.73C19.38 22.64 18.9 24.84 19.82 27.52C18.65 27.38 17.6 27.24 16.54 27.15C16.24 27.12 15.88 27.15 15.61 27.29C14.83 27.72 14.1 28.22 13.33 28.66C13.15 28.76 12.83 28.78 12.66 28.68C12.54 28.62 12.51 28.28 12.55 28.09C12.69 27.45 12.87 26.82 13.07 26.2C13.21 25.79 13.12 25.54 12.77 25.25C10.35 23.23 9.43 20.68 10.34 17.64C10.97 15.54 12.46 14.09 14.39 13.09C17.98 11.24 22.48 11.77 25.48 14.4C26.6 15.38 27.37 16.58 27.74 18.12ZM21.98 18.33C22.58 18.32 23.04 17.86 23.03 17.3C23.02 16.74 22.54 16.31 21.93 16.32C21.35 16.33 20.85 16.81 20.87 17.35C20.88 17.88 21.42 18.35 21.98 18.33ZM16.18 18.33C16.77 18.32 17.24 17.85 17.22 17.3C17.2 16.73 16.73 16.31 16.12 16.32C15.53 16.33 15.06 16.79 15.08 17.35C15.09 17.9 15.59 18.35 16.18 18.33Z" fill="#24DB5A" fill-opacity="1.000000" fill-rule="nonzero"/>
	<path id="path" d="M34.37 24.9C34.35 26.96 33.57 28.34 32.28 29.44C31.95 29.72 31.86 29.98 31.95 30.37C32.03 30.72 32.08 31.07 32.1 31.43C32.1 31.61 32.05 31.89 31.94 31.95C31.78 32.03 31.51 32 31.34 31.92C31.01 31.77 30.68 31.58 30.42 31.35C29.93 30.9 29.42 30.88 28.77 30.99C26.64 31.34 24.63 30.97 22.9 29.64C19.68 27.15 19.76 23.04 23.04 20.62C26.18 18.3 30.95 18.95 33.31 22.04C34.03 22.97 34.41 24.03 34.37 24.9ZM25.28 24.23C25.74 24.23 26.12 23.88 26.12 23.46C26.11 23.05 25.71 22.68 25.28 22.69C24.84 22.69 24.45 23.06 24.44 23.47C24.44 23.88 24.82 24.23 25.28 24.23ZM30.16 23.54C30.17 23.07 29.8 22.69 29.36 22.69C28.92 22.68 28.53 23.05 28.53 23.46C28.53 23.88 28.91 24.25 29.36 24.23C29.83 24.21 30.1 23.97 30.16 23.54Z" fill="#24DB5A" fill-opacity="1.000000" fill-rule="nonzero"/>
</svg>
